<svg width="2736" height="1327" xmlns="http://www.w3.org/2000/svg" xmlns:xlink="http://www.w3.org/1999/xlink" overflow="hidden"><defs><clipPath id="clip0"><rect x="-2471" y="-505" width="2736" height="1327"/></clipPath><clipPath id="clip1"><rect x="-2032" y="-59" width="1696" height="441"/></clipPath><clipPath id="clip2"><rect x="-2032" y="-59" width="1696" height="441"/></clipPath></defs><g clip-path="url(#clip0)" transform="translate(2471 505)"><g clip-path="url(#clip1)"><g clip-path="url(#clip2)"><path d="M154.519 4.21443C165.212-1.40481 181.482-1.40481 192.175 4.21443L301.288 61.5536C307.728 64.9378 311.264 69.9808 311.898 75.1867L312.002 75.1867 312.002 363.403C311.86 369.081 308.29 374.722 301.288 378.403L192.175 435.742C181.482 441.361 165.212 441.361 154.519 435.742L45.4068 378.403C38.4336 374.739 35.0871 369.057 34.9215 363.403 34.905 362.846 34.9029 362.382 34.9187 361.997L34.918 77.0379C34.907 76.7258 34.906 76.4141 34.9149 76.1037L34.9215 75.1867 34.9703 75.1863C35.4549 69.9234 38.8312 65.0093 45.4068 61.5536L154.519 4.21443ZM294.825 235.981 192.175 289.924C181.482 295.544 165.212 295.544 154.519 289.924L52.0935 236.101 52.0935 362.833 154.519 416.373C160.303 419.449 166.306 422.447 172.175 422.828L173.347 422.866C179.464 422.887 185.402 419.797 191.423 416.872L294.825 362.372 294.825 235.981ZM17.1744 357.137C17.1744 368.177 18.4643 375.437 21.0255 380.551 23.1483 384.789 26.3333 388.027 32.1491 391.969L32.4811 392.193C33.7574 393.049 35.1634 393.946 36.8748 394.998L38.8931 396.228 45.0906 399.951 36.2018 414.572 29.2651 410.403 28.0991 409.691C26.0935 408.457 24.4311 407.402 22.8805 406.361 6.30546 395.242 0.123821 383.122 0.00184587 357.904L0 357.137 17.1744 357.137ZM164.758 158.73C163.963 159.002 163.219 159.316 162.54 159.673L53.4278 217.012C53.3133 217.072 53.204 217.131 53.1002 217.19L53.0078 217.244 53.1789 217.341 53.4278 217.476 162.54 274.815C163.219 275.172 163.963 275.485 164.758 275.757L164.758 158.73ZM181.937 158.73 181.937 275.757C182.731 275.485 183.476 275.172 184.154 274.815L293.267 217.476C293.381 217.415 293.491 217.356 293.594 217.297L293.687 217.244 293.515 217.146 293.267 217.012 184.154 159.673C183.476 159.316 182.731 159.002 181.937 158.73ZM294.825 95.6319 196.945 147.069 294.825 198.506 294.825 95.6319ZM52.0935 95.7522 52.0935 198.386 149.746 147.069 52.0935 95.7522ZM184.154 19.3242C178.48 16.3424 168.214 16.3424 162.54 19.3242L53.4278 76.6636C53.3133 76.7238 53.204 76.7832 53.1002 76.842L53.0078 76.8953 53.1789 76.9929 53.4278 77.1273 162.54 134.467C168.214 137.448 178.48 137.448 184.154 134.467L293.267 77.1273C293.381 77.0672 293.491 77.0077 293.594 76.9486L293.687 76.8953 293.515 76.7977 293.267 76.6636 184.154 19.3242ZM310.951 25.6121 317.887 29.7803 319.053 30.4925C321.059 31.7243 322.721 32.7825 324.272 33.8226 340.847 44.9408 347.029 57.0626 347.149 82.2789L347.152 83.0471 329.978 83.0471C329.978 72.0042 328.688 64.7463 326.127 59.6329 324.004 55.3949 320.819 52.156 315.003 48.215L314.671 47.9912C313.395 47.135 311.989 46.2383 310.278 45.1841L308.259 43.9543 302.062 40.2332 310.951 25.6121Z" fill="#FFFFFF" transform="matrix(1 0 0 1.00018 -2031.02 -58.0801)"/><path d="M521.622 351.387 521.622 190.654 566.195 190.654 566.195 161.224 521.622 161.224 521.622 140.095C521.622 116.199 532.075 104.251 552.976 104.251 559.018 104.251 565.443 105.257 572.241 107.269L572.241 75.9532C563.93 73.4379 554.739 72.1802 544.665 72.1802 525.276 72.1802 510.228 77.714 499.525 88.7817 488.822 99.8493 483.47 115.948 483.47 137.077L483.47 161.224 446.83 161.224 446.83 190.654 483.47 190.654 483.47 351.387 521.622 351.387ZM676.497 354.027C691.105 354.027 703.884 351.009 714.838 344.97 725.793 338.935 734.042 330.256 739.582 318.938L739.582 351.387 777.357 351.387 777.357 161.224 739.582 161.224 739.582 192.163C733.787 180.844 725.48 172.103 714.649 165.94 703.822 159.778 691.105 156.696 676.497 156.696 660.129 156.696 645.521 160.847 632.68 169.147 619.836 177.448 609.826 189.145 602.65 204.237 595.473 219.329 591.885 236.685 591.885 256.305 591.885 275.925 595.408 293.092 602.461 307.807 609.51 322.522 619.396 333.904 632.113 341.953 644.83 350.002 659.624 354.027 676.497 354.027ZM685.564 323.842C668.186 323.842 654.65 317.931 644.958 306.109 635.261 294.287 630.412 277.685 630.412 256.305 630.412 234.673 635.261 217.757 644.958 205.558 654.65 193.358 668.062 187.258 685.186 187.258 702.561 187.258 715.973 193.169 725.414 204.991 734.86 216.814 739.582 233.667 739.582 255.55 739.582 277.182 734.86 293.972 725.414 305.92 715.973 317.868 702.688 323.842 685.564 323.842ZM871.036 351.387 871.036 243.099C871.036 226.246 875.883 212.789 885.579 202.728 895.275 192.666 908.182 187.636 924.298 187.636 938.401 187.636 948.661 191.408 955.085 198.954 961.506 206.501 964.716 218.574 964.716 235.176L964.716 351.387 1002.87 351.387 1002.87 232.912C1002.87 182.102 980.077 156.696 934.497 156.696 919.892 156.696 906.858 159.904 895.399 166.318 883.943 172.732 875.192 181.976 869.146 194.05L865.747 161.224 830.241 161.224C832.255 177.071 833.262 194.93 833.262 214.801L833.262 351.387 871.036 351.387ZM1130.54 354.027C1141.12 354.027 1150.57 352.645 1158.88 349.878L1158.88 318.938C1152.08 320.95 1145.4 321.956 1138.86 321.956 1128.78 321.956 1120.91 319.252 1115.25 313.844 1109.58 308.436 1106.75 299.192 1106.75 286.112L1106.75 190.654 1159.26 190.654 1159.26 161.224 1106.75 161.224 1106.75 100.478 1068.6 113.684 1068.6 161.224 1031.58 161.224 1031.58 190.654 1068.6 190.654 1068.6 289.13C1068.6 310.259 1074.01 326.358 1084.84 337.425 1095.67 348.493 1110.9 354.027 1130.54 354.027ZM1276.36 354.027C1294.74 354.027 1310.98 350.002 1325.08 341.953 1339.19 333.904 1350.08 322.459 1357.76 307.618 1365.44 292.778 1369.28 275.421 1369.28 255.55 1369.28 235.679 1365.44 218.26 1357.76 203.293 1350.08 188.327 1339.19 176.82 1325.08 168.77 1310.98 160.721 1294.74 156.696 1276.36 156.696 1257.72 156.696 1241.35 160.721 1227.25 168.77 1213.15 176.82 1202.25 188.327 1194.57 203.293 1186.89 218.26 1183.05 235.679 1183.05 255.55 1183.05 275.421 1186.89 292.778 1194.57 307.618 1202.25 322.459 1213.15 333.904 1227.25 341.953 1241.35 350.002 1257.72 354.027 1276.36 354.027ZM1275.98 323.842C1258.6 323.842 1245.19 318.057 1235.75 306.486 1226.3 294.916 1221.58 277.937 1221.58 255.55 1221.58 233.667 1226.37 216.814 1235.93 204.991 1245.5 193.169 1258.98 187.258 1276.36 187.258 1293.48 187.258 1306.76 193.169 1316.21 204.991 1325.65 216.814 1330.37 233.667 1330.37 255.55 1330.37 277.937 1325.71 294.916 1316.4 306.486 1307.08 318.057 1293.6 323.842 1275.98 323.842ZM1451.63 351.387 1451.63 243.854C1451.63 226.498 1455.91 212.789 1464.47 202.728 1473.03 192.666 1484.62 187.636 1499.22 187.636 1511.81 187.636 1520.94 191.408 1526.61 198.954 1532.28 206.501 1535.11 218.449 1535.11 234.798L1535.11 351.387 1573.26 351.387 1573.26 243.854C1573.26 226.498 1577.48 212.789 1585.92 202.728 1594.35 192.666 1605.87 187.636 1620.48 187.636 1633.07 187.636 1642.2 191.408 1647.86 198.954 1653.53 206.501 1656.36 218.449 1656.36 234.798L1656.36 351.387 1694.52 351.387 1694.52 232.912C1694.52 182.102 1673.36 156.696 1631.06 156.696 1616.95 156.696 1604.3 159.966 1593.09 166.506 1581.88 173.046 1573.39 181.976 1567.6 193.295 1558.53 168.896 1539.26 156.696 1509.8 156.696 1495.95 156.696 1483.86 159.841 1473.53 166.129 1463.21 172.418 1455.28 181.347 1449.74 192.918L1446.34 161.224 1410.83 161.224C1412.84 177.071 1413.85 194.93 1413.85 214.801L1413.85 351.387 1451.63 351.387Z" fill="#FFFFFF" transform="matrix(1 0 0 1.00018 -2031.02 -58.0801)"/></g></g><text fill="#FFFFFF" font-family="Abadi,Abadi_MSFontService,sans-serif" font-weight="400" font-size="165" transform="matrix(1 0 0 1 -1636.01 555)">Fantom <tspan font-size="165" x="579.219" y="0">fWallet</tspan></text></g></svg>