<svg width="150" height="30" viewBox="0 0 2500 500" fill="none" xmlns="http://www.w3.org/2000/svg">
<path d="M308.374 408.042C318.591 408.042 327.786 416.246 327.786 427.526C327.786 437.78 319.612 447.009 308.374 447.009C298.157 447.009 288.962 438.805 288.962 427.526C288.962 416.246 298.157 408.042 308.374 408.042ZM608.744 289.093C598.527 289.093 589.332 280.89 589.332 269.61C589.332 259.356 597.505 250.127 608.744 250.127C618.96 250.127 628.155 258.331 628.155 269.61C628.155 279.865 618.96 289.093 608.744 289.093ZM608.744 210.136C576.05 210.136 549.487 236.797 549.487 269.61C549.487 275.763 550.509 281.916 552.552 288.068L357.414 392.661C346.176 376.254 327.786 367.026 308.374 367.026C285.897 367.026 265.464 380.356 255.247 399.839L79.521 307.551C61.131 297.297 46.8277 267.56 48.8711 238.848C49.8927 224.492 55.0011 213.212 62.1527 209.111C67.261 206.034 72.3694 207.06 79.521 210.136C126.518 234.746 279.767 315.754 285.897 318.831C296.114 322.932 301.222 324.983 318.591 316.78L633.263 152.712C638.372 150.661 643.48 146.56 643.48 139.382C643.48 130.153 634.285 126.051 634.285 126.051C615.895 117.848 588.31 104.517 561.747 92.2123C504.534 65.5513 439.147 34.7886 410.541 19.4073C386.021 6.07681 365.587 17.3565 362.522 19.4073C232.771 85.0343 53.9794 173.221 43.7627 179.373C26.3944 189.627 15.1561 211.161 14.1345 237.822C12.0911 279.865 33.5461 323.958 64.196 339.339L250.139 435.729C254.226 464.441 279.767 487 308.374 487C341.067 487 366.609 461.364 367.631 428.551L571.964 317.805C582.18 326.009 595.462 330.11 608.744 330.11C641.437 330.11 668 303.449 668 270.636C668 236.797 641.437 210.136 608.744 210.136Z" fill="white"></path>
<path d="M2324 260.2V91L2246 91.0076V409H2324V335.2L2338.21 318.116L2397.2 409H2486L2396.09 271.462L2481.2 169H2394.31L2324 260.2Z" fill="white"></path>
<path d="M2102.18 414.096C2177.66 414.096 2224.75 368.542 2224.75 288.438C2224.75 209.874 2177 163 2102.18 163C2027.79 163 1979.6 210.094 1979.6 288.438C1979.6 368.322 2026.69 414.096 2102.18 414.096ZM2102.18 356.879C2075.33 356.879 2058.82 332.451 2058.82 288.658C2058.82 245.525 2075.77 220.217 2102.18 220.217C2128.81 220.217 2145.75 245.525 2145.75 288.658C2145.75 332.451 2128.81 356.879 2102.18 356.879Z" fill="white"></path>
<path d="M1842.2 414.285C1917.68 414.285 1964.77 368.731 1964.77 288.627C1964.77 210.063 1917.02 163.189 1842.2 163.189C1767.81 163.189 1719.62 210.283 1719.62 288.627C1719.62 368.511 1766.71 414.285 1842.2 414.285ZM1842.2 357.067C1815.35 357.067 1798.84 332.64 1798.84 288.847C1798.84 245.714 1815.79 220.406 1842.2 220.406C1868.82 220.406 1885.77 245.714 1885.77 288.847C1885.77 332.64 1868.82 357.067 1842.2 357.067Z" fill="white"></path>
<path d="M1593.8 409C1661.8 409 1704.54 372.685 1704.54 317.008C1704.54 274.755 1670.65 241.781 1627.74 239.8C1662.95 234.959 1689.79 205.875 1689.79 170.224C1689.79 121.149 1652.16 91 1589.66 91H1442V409H1593.8ZM1522.76 148.217H1568.32C1595.39 148.217 1611.23 161.421 1611.23 183.648C1611.23 206.535 1593.63 220.399 1564.36 220.399H1522.76V148.217ZM1522.76 351.339V269.474H1570.3C1603.53 269.474 1622.45 283.998 1622.45 309.966C1622.45 336.814 1603.97 351.339 1570.74 351.339H1522.76Z" fill="white"></path>
<path d="M1299.37 115.215V169H1266.8V226.348H1299.37V342.763C1299.37 389.857 1323.62 410.8 1385.9 410.8C1401.08 410.8 1412.92 407.683 1420.41 406.142V350.686C1415.79 351.566 1411.16 351.786 1405 351.786C1386.3 351.786 1377.49 343.423 1377.49 326.918V226.348H1420.4V169H1377.49V115.215H1299.37Z" fill="white"></path>
<path d="M1167.2 409H1245.2V169.001H1167.2V409Z" fill="white"></path>
<path d="M1246.4 112.117C1246.4 133.917 1228.66 152.2 1206.08 152.2C1183.74 152.2 1166 133.917 1166 112.117C1166 90.0833 1183.74 71.7999 1206.08 71.7999C1228.66 71.7999 1246.4 90.0833 1246.4 112.117Z" fill="white"></path>
<path d="M1138.4 355.841V235.935H1008.85V293.535H1060.4V331.935C1047.2 343.241 1037 348.881 1002.47 348.881C956.034 348.881 926.105 310.809 926.105 247.87C926.105 186.031 953.173 150.161 998.947 150.161C1029.98 150.161 1052.48 167.326 1060.4 195.494H1138.4C1130.26 130.795 1075.75 85.241 998.727 85.241C902.778 85.241 848 145.809 848 248.8C848 353.112 902.778 413.8 1000.71 413.8C1087.34 413.8 1122.8 381.641 1138.4 355.841Z" fill="white"></path>
</svg>
